<?xml version="1.0" encoding="UTF-8"?>
<svg version="1.1" xmlns="http://www.w3.org/2000/svg" width="248" height="248">
<path d="M0 0 C1.84815308 0.00845947 1.84815308 0.00845947 3.73364258 0.01708984 C32.01239294 0.39322124 58.52676194 11.10559643 79.25 30.3125 C80.66384197 31.50336169 82.0801399 32.69132015 83.5 33.875 C104.80228497 52.66055932 120.33806145 81.83942188 122.25 110.3125 C123.96582435 147.69343598 114.08314353 179.42292916 88.86767578 207.56347656 C81.83748779 215.16448272 73.64535647 221.30319221 65.25 227.3125 C64.4353125 227.93125 63.620625 228.55 62.78125 229.1875 C55.90386452 234.06260869 48.50275662 236.48087114 40.51000977 238.91650391 C39.19214478 239.3213501 39.19214478 239.3213501 37.84765625 239.734375 C36.66441772 240.08387207 36.66441772 240.08387207 35.45727539 240.44042969 C33.17816113 241.21500808 33.17816113 241.21500808 31.33764648 242.84863281 C26.61980291 246.15680614 20.40097472 245.49515562 14.8359375 245.55078125 C14.03251419 245.56062042 13.22909088 245.57045959 12.40132141 245.58059692 C-21.53223251 245.91072607 -21.53223251 245.91072607 -35.75 241.3125 C-36.50394043 241.07112305 -37.25788086 240.82974609 -38.03466797 240.58105469 C-54.83899318 234.99717233 -69.10981228 226.72303868 -82.13354492 214.76855469 C-83.85375368 213.21904177 -85.62151388 211.73786801 -87.3984375 210.25390625 C-90.20408178 207.85965814 -92.55129642 205.36602269 -94.8125 202.4375 C-95.48152344 201.57382813 -96.15054688 200.71015625 -96.83984375 199.8203125 C-97.78537109 198.57894531 -97.78537109 198.57894531 -98.75 197.3125 C-99.28753906 196.62929687 -99.82507813 195.94609375 -100.37890625 195.2421875 C-119.92618564 170.0297697 -126.39818194 137.79559972 -122.86621094 106.52099609 C-121.02703891 92.67531701 -116.72749055 79.68017266 -110.8125 67.0625 C-110.22082031 65.79539185 -110.22082031 65.79539185 -109.6171875 64.50268555 C-96.11282215 37.02687424 -68.05612924 16.2715151 -39.75 6.3125 C-26.53221648 1.99648905 -13.90113063 -0.06688289 0 0 Z " fill="#D92828" transform="translate(124.75,0.6875)"/>
<path d="M0 0 C13.61340191 -0.06969049 27.22676096 -0.12290787 40.84030533 -0.15543652 C47.16248147 -0.17105323 53.48453502 -0.19221843 59.80664062 -0.22631836 C65.91449936 -0.25905433 72.02224062 -0.27688302 78.13018036 -0.28463173 C80.45362953 -0.29014973 82.7770727 -0.3009247 85.1004715 -0.31719017 C116.02440184 -0.52495512 116.02440184 -0.52495512 127.90234375 10.81640625 C132.5293778 15.65865118 134.91317479 20.68342691 137 27 C137.33 27.99 137.66 28.98 138 30 C138.9447163 44.37207743 137.06316572 55.36635207 128 67 C127.54496094 67.60457031 127.08992187 68.20914063 126.62109375 68.83203125 C119.70162969 76.83548446 108.05141556 81.42170721 98 84 C99.03833984 85.6396875 99.03833984 85.6396875 100.09765625 87.3125 C111.19417609 104.84985945 122.21128073 122.43467772 133.0625 140.125 C140.24527539 151.83355797 147.58121723 163.43976605 155 175 C152.24650563 177.97598361 149.96905299 178.84107204 146.0625 180 C141.75991157 181.24753392 141.75991157 181.24753392 137.99609375 183.5625 C133.41053556 186.8648198 127.04158866 186.183749 121.5859375 186.23828125 C120.78251419 186.24812042 119.97909088 186.25795959 119.15132141 186.26809692 C85.21776749 186.59822607 85.21776749 186.59822607 71 182 C70.24605957 181.75862305 69.49211914 181.51724609 68.71533203 181.26855469 C51.91100682 175.68467233 37.64018772 167.41053868 24.61645508 155.45605469 C22.89624632 153.90654177 21.12848612 152.42536801 19.3515625 150.94140625 C16.54591822 148.54715814 14.19870358 146.05352269 11.9375 143.125 C11.26847656 142.26132813 10.59945313 141.39765625 9.91015625 140.5078125 C8.96462891 139.26644531 8.96462891 139.26644531 8 138 C7.46246094 137.31679687 6.92492187 136.63359375 6.37109375 135.9296875 C-13.18433821 110.70675437 -19.62807896 78.49604541 -16.1184082 47.21289062 C-15.32411694 41.20907519 -14.03353634 35.40192305 -12.4375 29.5625 C-12.23495605 28.79035156 -12.03241211 28.01820312 -11.82373047 27.22265625 C-9.97437549 20.88935443 -7.21367577 15.0676345 -4.36743164 9.13647461 C-3.94774361 8.25650566 -3.52805557 7.37653671 -3.09564972 6.46990204 C-2.06611919 4.31213017 -1.03417855 2.15554699 0 0 Z " fill="#253D7F" transform="translate(18,60)"/>
<path d="M0 0 C2.5 0.5625 2.5 0.5625 4.12922668 2.25372314 C5.79663319 5.06211568 5.89505987 6.81172041 5.93237305 10.06542969 C5.96206429 11.71668854 5.96206429 11.71668854 5.99235535 13.40130615 C5.99874527 14.58371887 6.00513519 15.76613159 6.01171875 16.984375 C6.02966995 18.19949768 6.04762115 19.41462036 6.06611633 20.66656494 C6.12030858 24.54850797 6.1541447 28.43032741 6.1875 32.3125 C6.22066508 34.94402765 6.25515397 37.57553897 6.29101562 40.20703125 C6.3760404 46.65874335 6.44435271 53.11047127 6.5 59.5625 C7.02094238 59.03933701 7.54188477 58.51617401 8.07861328 57.97715759 C13.01818945 53.01744143 17.96024481 48.0602117 22.90501404 43.10567379 C25.44632359 40.55917306 27.98670605 38.01176235 30.52490234 35.4621582 C32.98007864 32.99601795 35.43777792 30.53241699 37.89715576 28.070467 C39.27901905 26.68589044 40.65834075 25.29877877 42.03759766 23.91160583 C46.52027683 19.4285331 51.05280517 15.08319517 55.88156128 10.97325134 C57.94461127 9.17494381 59.78090271 7.2072256 61.625 5.1875 C64.26384988 2.4860687 65.2665047 1.62921294 69 0.5625 C69.825 0.5625 70.65 0.5625 71.5 0.5625 C73.0625 2.25 73.0625 2.25 74.5 4.5625 C74.22002942 9.08463356 72.46550782 11.06308369 69.2734375 14.14453125 C68.40589844 14.99466797 67.53835937 15.84480469 66.64453125 16.72070312 C65.73058594 17.59662109 64.81664063 18.47253906 63.875 19.375 C58.36753244 24.7190767 52.96232338 30.03146991 47.97900391 35.87182617 C45.49925495 38.70646822 42.69769972 41.18248757 39.90625 43.703125 C38.28128839 45.40790828 38.28128839 45.40790828 38.69555664 47.29296875 C39.77656826 50.34276664 41.3222995 52.94585529 42.96484375 55.734375 C43.31337402 56.32860764 43.6619043 56.92284027 44.02099609 57.53507996 C45.15460223 59.46402207 46.29573315 61.38837889 47.4375 63.3125 C48.22682088 64.65036759 49.01596401 65.98834007 49.80493164 67.32641602 C53.96295588 74.36355631 58.17448397 81.36121264 62.55615234 88.26171875 C66.84378506 95.04002654 70.94487328 101.93026412 75.0625 108.8125 C80.76758083 118.34403215 86.48233633 127.86922006 92.24539185 137.36584473 C93.30341203 139.11001824 94.3596161 140.85528278 95.41577148 142.60058594 C98.72086331 148.04849655 102.05962614 153.46870894 105.48828125 158.83984375 C106.41193481 160.29571899 106.41193481 160.29571899 107.35424805 161.78100586 C108.50232537 163.58440375 109.66075351 165.38126995 110.83129883 167.17016602 C111.33298584 167.95963623 111.83467285 168.74910645 112.3515625 169.5625 C112.79322754 170.243125 113.23489258 170.92375 113.68994141 171.625 C114.5 173.5625 114.5 173.5625 114.57177734 175.625 C113.13959717 178.21401637 111.2884249 178.98831037 108.57577515 180.00637817 C104.91122435 180.98814958 101.32601971 181.00998267 97.55078125 180.99609375 C96.27173164 181.00395653 96.27173164 181.00395653 94.96684265 181.01197815 C93.16239502 181.01837934 91.35790556 181.01708607 89.5534668 181.00854492 C86.8649092 181.00016338 84.17857542 181.0286106 81.49023438 181.06054688 C53.37052184 181.17634628 25.96229428 172.85013901 4.0625 154.8125 C3.51231201 154.36487305 2.96212402 153.91724609 2.39526367 153.45605469 C-0.06062098 151.32559156 -1.40455201 149.88095319 -2.34765625 146.734375 C-2.39792969 146.01765625 -2.44820312 145.3009375 -2.5 144.5625 C-1.51 144.5625 -0.52 144.5625 0.5 144.5625 C0.5 143.5725 0.5 142.5825 0.5 141.5625 C-0.304375 141.294375 -1.10875 141.02625 -1.9375 140.75 C-2.783125 140.358125 -3.62875 139.96625 -4.5 139.5625 C-5.51570508 136.51538476 -5.63052632 134.45139076 -5.64044189 131.26211548 C-5.64615204 130.1629631 -5.65186218 129.06381073 -5.65774536 127.93135071 C-5.65886322 126.72504501 -5.65998108 125.51873932 -5.66113281 124.27587891 C-5.66858017 122.37069237 -5.66858017 122.37069237 -5.67617798 120.42701721 C-5.6892933 116.94143363 -5.69574512 113.45586931 -5.70018864 109.97026491 C-5.70312049 107.7924133 -5.70722549 105.61456695 -5.71169281 103.43671799 C-5.72536485 96.62209333 -5.7350332 89.80748069 -5.7388947 82.99284327 C-5.74337625 75.12733725 -5.76092976 67.26200493 -5.7898953 59.39655173 C-5.81151104 53.31578039 -5.82159891 47.23505794 -5.82293582 41.1542486 C-5.82398384 37.52280459 -5.82989097 33.89152394 -5.84775543 30.26012039 C-5.86729599 26.20927636 -5.86294761 22.15879608 -5.85644531 18.10791016 C-5.8656601 16.90565292 -5.87487488 15.70339569 -5.8843689 14.46470642 C-5.87879974 13.3599144 -5.87323059 12.25512238 -5.86749268 11.11685181 C-5.86895924 10.15931818 -5.8704258 9.20178455 -5.8719368 8.21523476 C-5.30670587 4.18388389 -4.17244547 0.93880023 0 0 Z " fill="#253D80" transform="translate(43.5,65.4375)"/>
<path d="M0 0 C2.5 0.5625 2.5 0.5625 4.12922668 2.25372314 C5.79663319 5.06211568 5.89505987 6.81172041 5.93237305 10.06542969 C5.96206429 11.71668854 5.96206429 11.71668854 5.99235535 13.40130615 C5.99874527 14.58371887 6.00513519 15.76613159 6.01171875 16.984375 C6.02966995 18.19949768 6.04762115 19.41462036 6.06611633 20.66656494 C6.12030858 24.54850797 6.1541447 28.43032741 6.1875 32.3125 C6.22066508 34.94402765 6.25515397 37.57553897 6.29101562 40.20703125 C6.3760404 46.65874335 6.44435271 53.11047127 6.5 59.5625 C7.02094238 59.03933701 7.54188477 58.51617401 8.07861328 57.97715759 C13.01818945 53.01744143 17.96024481 48.0602117 22.90501404 43.10567379 C25.44632359 40.55917306 27.98670605 38.01176235 30.52490234 35.4621582 C32.98007864 32.99601795 35.43777792 30.53241699 37.89715576 28.070467 C39.27901905 26.68589044 40.65834075 25.29877877 42.03759766 23.91160583 C46.52027683 19.4285331 51.05280517 15.08319517 55.88156128 10.97325134 C57.94461127 9.17494381 59.78090271 7.2072256 61.625 5.1875 C64.26384988 2.4860687 65.2665047 1.62921294 69 0.5625 C69.825 0.5625 70.65 0.5625 71.5 0.5625 C73.0625 2.25 73.0625 2.25 74.5 4.5625 C74.22002942 9.08463356 72.46550782 11.06308369 69.2734375 14.14453125 C68.40589844 14.99466797 67.53835937 15.84480469 66.64453125 16.72070312 C65.73058594 17.59662109 64.81664063 18.47253906 63.875 19.375 C58.36753244 24.7190767 52.96232338 30.03146991 47.97900391 35.87182617 C45.49925495 38.70646822 42.69769972 41.18248757 39.90625 43.703125 C38.28128839 45.40790828 38.28128839 45.40790828 38.69555664 47.29296875 C39.77656826 50.34276664 41.3222995 52.94585529 42.96484375 55.734375 C43.31337402 56.32860764 43.6619043 56.92284027 44.02099609 57.53507996 C45.15460223 59.46402207 46.29573315 61.38837889 47.4375 63.3125 C48.22682088 64.65036759 49.01596401 65.98834007 49.80493164 67.32641602 C53.96295588 74.36355631 58.17448397 81.36121264 62.55615234 88.26171875 C66.84378506 95.04002654 70.94487328 101.93026412 75.0625 108.8125 C80.76758083 118.34403215 86.48233633 127.86922006 92.24539185 137.36584473 C93.30341203 139.11001824 94.3596161 140.85528278 95.41577148 142.60058594 C98.72086331 148.04849655 102.05962614 153.46870894 105.48828125 158.83984375 C106.41193481 160.29571899 106.41193481 160.29571899 107.35424805 161.78100586 C108.50232537 163.58440375 109.66075351 165.38126995 110.83129883 167.17016602 C111.33298584 167.95963623 111.83467285 168.74910645 112.3515625 169.5625 C112.79322754 170.243125 113.23489258 170.92375 113.68994141 171.625 C114.5 173.5625 114.5 173.5625 114.34521484 175.69921875 C113.5 177.5625 113.5 177.5625 110.125 179.375 C106.5 180.5625 106.5 180.5625 103.5 179.5625 C102.20654297 177.58813477 102.20654297 177.58813477 100.8671875 174.94140625 C98.46393972 170.35157272 95.96263574 165.85663551 93.3203125 161.40234375 C92.7609903 160.45797958 92.7609903 160.45797958 92.19036865 159.49453735 C91.00400859 157.49510428 89.81473357 155.4974273 88.625 153.5 C88.20959961 152.80108643 87.79419922 152.10217285 87.36621094 151.38208008 C81.19758235 141.0057504 74.9230665 130.70169996 68.56542969 120.43994141 C62.81736456 111.13756549 57.23267666 101.74277704 51.66610718 92.33105469 C44.37928849 80.01164639 36.98428035 67.76323302 29.5 55.5625 C24.84204575 59.50539817 20.28643876 63.53729821 15.8125 67.6875 C15.25755859 68.19925781 14.70261719 68.71101563 14.13085938 69.23828125 C12.58014497 70.67283037 11.03112515 72.10704304 9.5 73.5625 C8.81702347 74.1328598 8.13404694 74.7032196 7.43037415 75.29086304 C4.97361247 78.1819454 5.02313452 79.61559156 5.07763672 83.36914062 C5.08439423 84.5371521 5.09115173 85.70516357 5.09811401 86.90856934 C5.12503326 88.16592896 5.15195251 89.42328857 5.1796875 90.71875 C5.19558097 92.6963103 5.21146437 94.67387074 5.22674751 96.65143585 C5.25299611 99.41922759 5.29740159 102.18661345 5.34191895 104.9541626 C5.4179086 109.79717127 5.47472195 114.64035347 5.5173645 119.48376465 C5.54189152 122.06144834 5.57711168 124.63905662 5.62399292 127.21643066 C5.63705475 128.38444214 5.65011658 129.55245361 5.66357422 130.75585938 C5.68008026 131.78304077 5.6965863 132.81022217 5.71359253 133.86853027 C5.49295053 136.65141257 5.05571843 138.25808298 3.5 140.5625 C1.0625 141.4375 1.0625 141.4375 -1.5 141.5625 C-4.5 139.5625 -4.5 139.5625 -5.5 136.5625 C-5.59659938 134.79772689 -5.63494696 133.02952187 -5.64044189 131.26211548 C-5.64615204 130.1629631 -5.65186218 129.06381073 -5.65774536 127.93135071 C-5.65886322 126.72504501 -5.65998108 125.51873932 -5.66113281 124.27587891 C-5.66858017 122.37069237 -5.66858017 122.37069237 -5.67617798 120.42701721 C-5.6892933 116.94143363 -5.69574512 113.45586931 -5.70018864 109.97026491 C-5.70312049 107.7924133 -5.70722549 105.61456695 -5.71169281 103.43671799 C-5.72536485 96.62209333 -5.7350332 89.80748069 -5.7388947 82.99284327 C-5.74337625 75.12733725 -5.76092976 67.26200493 -5.7898953 59.39655173 C-5.81151104 53.31578039 -5.82159891 47.23505794 -5.82293582 41.1542486 C-5.82398384 37.52280459 -5.82989097 33.89152394 -5.84775543 30.26012039 C-5.86729599 26.20927636 -5.86294761 22.15879608 -5.85644531 18.10791016 C-5.8656601 16.90565292 -5.87487488 15.70339569 -5.8843689 14.46470642 C-5.87879974 13.3599144 -5.87323059 12.25512238 -5.86749268 11.11685181 C-5.86895924 10.15931818 -5.8704258 9.20178455 -5.8719368 8.21523476 C-5.30670587 4.18388389 -4.17244547 0.93880023 0 0 Z " fill="#FAFDFC" transform="translate(43.5,65.4375)"/>
<path d="M0 0 C0.94369949 -0.00554901 1.88739899 -0.01109802 2.85969543 -0.01681519 C5.98526554 -0.02864048 9.10939398 -0.00428861 12.23486328 0.02148438 C14.41521132 0.02319618 16.59556143 0.02312909 18.77590942 0.0213623 C23.3542237 0.02301771 27.93204968 0.04174272 32.51025391 0.07324219 C38.34488011 0.11268515 44.17885965 0.11731585 50.01359367 0.10977936 C54.522998 0.10668901 59.03226029 0.11890696 63.54162979 0.13591003 C65.69035066 0.14288889 67.83908764 0.14607085 69.98781967 0.1452179 C88.47127981 0.15635555 106.72113743 0.65619603 120.68017578 14.61523438 C131.14602781 27.29413001 134.04549825 41.52185892 132.68017578 57.61523438 C129.60355073 73.39965856 120.75550857 85.64454901 107.96533203 95.20898438 C104.41526223 97.39364271 100.70856376 98.61527991 96.68017578 99.61523438 C102.49795983 108.99920816 108.40330355 118.32371898 114.36767578 127.61523438 C121.07022457 138.06206416 127.6872457 148.55893402 134.23486328 159.10351562 C136.41223542 162.60489984 138.62109141 166.08093707 140.87548828 169.53320312 C141.3538916 170.27304443 141.83229492 171.01288574 142.32519531 171.77514648 C143.19869099 173.12253324 144.08181047 174.46375326 144.9765625 175.79711914 C146.11767578 177.56835938 146.11767578 177.56835938 147.68017578 180.61523438 C147.35017578 181.93523437 147.02017578 183.25523437 146.68017578 184.61523438 C144.04017578 185.27523437 141.40017578 185.93523437 138.68017578 186.61523438 C133.86563473 179.91132882 129.41916015 173.06987751 125.18017578 165.99023438 C120.22483998 157.78151691 115.21140054 149.61383578 110.11767578 141.49023438 C105.32048754 133.83955694 100.54681507 126.17546655 95.80517578 118.49023438 C90.85474789 110.47177654 85.81816697 102.51472987 80.68017578 94.61523438 C83.65123909 93.03987988 86.61692051 91.92488773 89.80517578 90.86523438 C103.92867748 85.76194243 111.94486443 78.23494911 118.29736328 64.82226562 C122.18012434 55.81733107 122.20204355 43.84970471 119.05517578 34.55273438 C114.74735096 24.55676059 107.96294317 17.80544315 98.02392578 13.41210938 C91.92279315 11.33772428 85.72695748 11.44807148 79.36035156 11.40991211 C78.33535049 11.40001251 77.31034943 11.39011292 76.25428772 11.37991333 C72.87804446 11.34841366 69.50178714 11.32358656 66.12548828 11.29882812 C63.7799341 11.27824864 61.43438354 11.25725191 59.08883667 11.2358551 C52.92398012 11.18073719 46.75909067 11.13128263 40.59417725 11.08300781 C34.29989707 11.03271765 28.00566451 10.97707084 21.71142578 10.921875 C9.36771648 10.81441919 -2.97603421 10.71294638 -15.31982422 10.61523438 C-12.26429604 1.7032772 -8.98342893 -0.13397399 0 0 Z " fill="#FBFAFA" transform="translate(34.31982421875,49.384765625)"/>
<path d="M0 0 C0.9075 0.12375 1.815 0.2475 2.75 0.375 C2.75 0.705 2.75 1.035 2.75 1.375 C1.574375 1.49875 1.574375 1.49875 0.375 1.625 C-2.32575956 2.09169507 -2.32575956 2.09169507 -3.39861012 4.08224392 C-4.40741298 6.79890634 -4.49888542 8.91093729 -4.49723816 11.80909729 C-4.50143265 12.91251465 -4.50562714 14.01593201 -4.50994873 15.15278625 C-4.50432922 16.35863876 -4.49870972 17.56449127 -4.49291992 18.80688477 C-4.49481827 20.08036774 -4.49671661 21.35385071 -4.49867249 22.66592407 C-4.50351638 26.15549461 -4.49587117 29.6449371 -4.48571944 33.13449216 C-4.47693236 36.78594392 -4.47869651 40.43739175 -4.4790802 44.08885193 C-4.47814392 50.21965679 -4.46946428 56.35041213 -4.45581055 62.48120117 C-4.44007842 69.57147834 -4.43481271 76.66170131 -4.4355461 83.75199467 C-4.43615623 90.57143059 -4.43105258 97.39084885 -4.42275429 104.21027946 C-4.41922196 107.11332271 -4.41739111 110.0163597 -4.41686058 112.91940498 C-4.41567048 116.970466 -4.4059624 121.02146272 -4.39526367 125.07250977 C-4.39571686 126.28038651 -4.39617004 127.48826324 -4.39663696 128.73274231 C-4.39237198 129.83333984 -4.38810699 130.93393738 -4.38371277 132.06788635 C-4.38203692 133.02596475 -4.38036108 133.98404314 -4.37863445 134.97115421 C-4.34871209 137.5206681 -4.34871209 137.5206681 -3.25 140.375 C-1.24983534 141.58382096 -1.24983534 141.58382096 0.75 142.375 C0.75 143.365 0.75 144.355 0.75 145.375 C-0.24 145.375 -1.23 145.375 -2.25 145.375 C-2.25 146.035 -2.25 146.695 -2.25 147.375 C-1.59 147.705 -0.93 148.035 -0.25 148.375 C-0.91 148.705 -1.57 149.035 -2.25 149.375 C-8.18409367 144.67717584 -12.67451008 139.38850104 -17.25 133.375 C-16.59 133.045 -15.93 132.715 -15.25 132.375 C-14.858125 132.890625 -14.46625 133.40625 -14.0625 133.9375 C-13.464375 134.411875 -12.86625 134.88625 -12.25 135.375 C-9.65992227 135.007085 -9.65992227 135.007085 -7.25 134.375 C-7.25368717 133.72085302 -7.25737434 133.06670605 -7.26117325 132.39273643 C-7.34955187 116.46802072 -7.41572291 100.54339043 -7.45724869 84.61849022 C-7.47786458 76.91728273 -7.50596638 69.21623906 -7.55175781 61.51513672 C-7.59165561 54.80200643 -7.6174399 48.08899479 -7.62635398 41.37574923 C-7.63156382 37.82183621 -7.64378797 34.26826259 -7.67292023 30.71445847 C-7.7051955 26.7449589 -7.70595751 22.77578988 -7.70410156 18.80615234 C-7.71848267 17.63082947 -7.73286377 16.45550659 -7.74768066 15.24456787 C-7.67492829 0.88556865 -7.67492829 0.88556865 0 0 Z " fill="#293D6D" transform="translate(43.25,64.625)"/>
<path d="M0 0 C13.61340191 -0.06969049 27.22676096 -0.12290787 40.84030533 -0.15543652 C47.16248147 -0.17105323 53.48453502 -0.19221843 59.80664062 -0.22631836 C65.91449936 -0.25905433 72.02224062 -0.27688302 78.13018036 -0.28463173 C80.45362953 -0.29014973 82.7770727 -0.3009247 85.1004715 -0.31719017 C116.02440184 -0.52495512 116.02440184 -0.52495512 127.90234375 10.81640625 C132.5293778 15.65865118 134.91317479 20.68342691 137 27 C137.33 27.99 137.66 28.98 138 30 C138.66135915 40.06133257 138.4813989 48.73710852 134 58 C132.90101298 54.70303895 133.12875556 53.59505097 133.9375 50.3125 C134.22947266 49.10013672 134.22947266 49.10013672 134.52734375 47.86328125 C134.76130859 46.94095703 134.76130859 46.94095703 135 46 C135.66 46 136.32 46 137 46 C136.88534579 43.77027727 136.75785234 41.54121247 136.625 39.3125 C136.55539063 38.07113281 136.48578125 36.82976562 136.4140625 35.55078125 C136.03201592 32.27455161 135.25903514 30.00428303 134 27 C134 25.68 134 24.36 134 23 C133.34 23 132.68 23 132 23 C132 22.01 132 21.02 132 20 C130.68 20 129.36 20 128 20 C128.020625 18.989375 128.04125 17.97875 128.0625 16.9375 C127.53886807 13.034062 125.7305246 11.5620569 122.6875 9.1875 C113.89634392 2.83752445 105.33381112 1.69407274 94.6784668 1.74121094 C93.68871353 1.7377063 92.69896027 1.73420166 91.67921448 1.73059082 C88.43580944 1.72184925 85.19262567 1.72759353 81.94921875 1.734375 C79.68479877 1.73302671 77.42037907 1.73108481 75.15596008 1.72857666 C70.42450182 1.72563613 65.69311934 1.72989058 60.96166992 1.73925781 C54.89427294 1.75068436 48.82705228 1.74406582 42.75966167 1.73211288 C38.0903032 1.72489321 33.4209867 1.72718216 28.75162697 1.73236847 C26.5136901 1.73370297 24.27574943 1.73206421 22.037817 1.72740936 C18.9166283 1.72233888 15.79572775 1.73006042 12.67456055 1.74121094 C11.74930573 1.73716248 10.8240509 1.73311401 9.87075806 1.72894287 C8.59465416 1.73740234 8.59465416 1.73740234 7.29277039 1.74603271 C6.55596385 1.74678677 5.81915731 1.74754082 5.06002331 1.74831772 C2.69401696 2.03738332 1.0601626 2.82920855 -1 4 C-0.67 2.68 -0.34 1.36 0 0 Z " fill="#2D3B6A" transform="translate(18,60)"/>
<path d="M0 0 C1 2 1 2 0.4765625 3.91015625 C0.19554687 4.62042969 -0.08546875 5.33070312 -0.375 6.0625 C-0.65085937 6.77535156 -0.92671875 7.48820312 -1.2109375 8.22265625 C-2 10 -2 10 -3 11 C-1.82474762 10.9969838 -0.64949524 10.99396759 0.56137085 10.99085999 C11.71081551 10.96684464 22.85969758 10.98005907 34.00906944 11.02846622 C39.73930145 11.05218265 45.46895578 11.06339568 51.19921875 11.04467773 C56.74338246 11.02705033 62.28651564 11.04403741 67.83055496 11.08367729 C69.93130346 11.09287471 72.03214311 11.09020711 74.13285446 11.07469368 C87.69042553 10.98440995 100.0515888 12.00229048 112 19 C112.70171165 21.1181345 112.70171165 21.1181345 113 23 C111.94425781 22.40251953 111.94425781 22.40251953 110.8671875 21.79296875 C109.87976563 21.26316406 108.89234375 20.73335937 107.875 20.1875 C106.92367187 19.66542969 105.97234375 19.14335938 104.9921875 18.60546875 C92.11473902 12.8953621 77.95894139 13.52873494 64.1953125 13.48828125 C62.01812752 13.47140477 59.8409521 13.45325062 57.66378784 13.43388367 C51.97909537 13.38669983 46.2944417 13.35668691 40.60961914 13.33044434 C34.79044943 13.30047804 28.97141303 13.25400353 23.15234375 13.20898438 C11.76829937 13.1233116 0.38422727 13.05580738 -11 13 C-10.0624602 11.72727366 -9.12172926 10.4568977 -8.1796875 9.1875 C-7.65616699 8.47980469 -7.13264648 7.77210937 -6.59326172 7.04296875 C-4.5756834 4.45591767 -2.38666444 2.24627242 0 0 Z " fill="#B03939" transform="translate(37,37)"/>
<path d="M0 0 C6.625 0.75 6.625 0.75 10 3 C10 3.66 10 4.32 10 5 C10.680625 5.103125 11.36125 5.20625 12.0625 5.3125 C15 6 15 6 18.5 7.5625 C21.80298592 9.17808696 21.80298592 9.17808696 24.8125 9 C25.534375 9 26.25625 9 27 9 C27.99 10.485 27.99 10.485 29 12 C32.02499482 12.99767887 32.02499482 12.99767887 35.5625 13.625 C37.44388672 13.99625 37.44388672 13.99625 39.36328125 14.375 C43.57212157 15.09832379 47.75235366 15.57523537 52 16 C52.66 16.33 53.32 16.66 54 17 C56.41002814 17.12778201 58.7768746 17.18976137 61.1875 17.1875 C62.24324219 17.1884668 62.24324219 17.1884668 63.3203125 17.18945312 C70.64988034 17.11759462 77.76952831 16.16352418 85 15 C84.01 12.03 83.02 9.06 82 6 C81.34 6 80.68 6 80 6 C80.33 4.68 80.66 3.36 81 2 C82.3416203 4.0992764 83.67336839 6.2037832 85 8.3125 C85.3815625 8.90740234 85.763125 9.50230469 86.15625 10.11523438 C89 14.66015625 89 14.66015625 89 18 C57.38589731 22.88509376 27.47328155 16.96945164 0 1 C0 0.67 0 0.34 0 0 Z " fill="#2C3D6B" transform="translate(58,227)"/>
<path d="M0 0 C9.87135722 17.3821725 6.46749452 45.60325987 1.45214844 64.01074219 C0.97906054 65.67697944 0.49105065 67.33896779 0 69 C-0.33 69 -0.66 69 -1 69 C-1 64.71 -1 60.42 -1 56 C-0.34 56 0.32 56 1 56 C1.88967682 46.37242588 2.10913361 36.79159625 2.125 27.125 C2.12951172 25.95340332 2.13402344 24.78180664 2.13867188 23.57470703 C2.13673828 22.48013184 2.13480469 21.38555664 2.1328125 20.2578125 C2.13168457 19.2692627 2.13055664 18.28071289 2.12939453 17.26220703 C2.25357963 15.03172178 2.25357963 15.03172178 1 14 C0.76472227 11.65012738 0.58613583 9.29443961 0.4375 6.9375 C0.35371094 5.64714844 0.26992187 4.35679688 0.18359375 3.02734375 C0.12300781 2.02832031 0.06242188 1.02929688 0 0 Z " fill="#B23738" transform="translate(242,91)"/>
<path d="M0 0 C3.16115776 1.36983503 3.9927092 1.9890638 6 5 C6.23377991 7.06672668 6.23377991 7.06672668 6.21118164 9.46801758 C6.20780289 10.36937943 6.20442413 11.27074127 6.20094299 12.19941711 C6.18748337 13.17130478 6.17402374 14.14319244 6.16015625 15.14453125 C6.1523539 16.64834602 6.1523539 16.64834602 6.14439392 18.18254089 C6.12656202 21.39267361 6.09540964 24.60248916 6.0625 27.8125 C6.03483091 31.01176903 6.0100978 34.21099019 5.99131775 37.4103241 C5.97912149 39.40150578 5.96157822 41.39266381 5.93800354 43.38374329 C5.90456073 48.04776419 6.02338499 52.41167988 7 57 C5.68 57.99 4.36 58.98 3 60 C2.99191315 59.30731018 2.98382629 58.61462036 2.97549438 57.90093994 C2.88950935 50.69842002 2.79000808 43.49617723 2.68261719 36.29394531 C2.64321989 33.6051811 2.60863212 30.9164185 2.578125 28.22753906 C2.53251623 24.36504669 2.47451385 20.50291003 2.4140625 16.640625 C2.40251129 15.4363385 2.39096008 14.232052 2.37905884 12.99127197 C2.3492543 11.30998199 2.3492543 11.30998199 2.31884766 9.59472656 C2.30552399 8.60877502 2.29220032 7.62282349 2.2784729 6.60699463 C1.99442119 3.94777253 1.35544437 2.28241384 0 0 Z " fill="#2C3D68" transform="translate(46,66)"/>
<path d="M0 0 C0 0.33 0 0.66 0 1 C-1.01320313 1.19916016 -1.01320313 1.19916016 -2.046875 1.40234375 C-2.93890625 1.57894531 -3.8309375 1.75554687 -4.75 1.9375 C-5.63171875 2.11152344 -6.5134375 2.28554687 -7.421875 2.46484375 C-9.63235053 2.92368488 -11.81512068 3.43336074 -14 4 C-14 3.34 -14 2.68 -14 2 C-14.66 2 -15.32 2 -16 2 C-16 1.34 -16 0.68 -16 0 C-16.66 0.33 -17.32 0.66 -18 1 C-20.98188471 1.1850825 -23.95284178 1.32603029 -26.9375 1.4375 C-35.14793823 1.80172245 -43.15276555 2.38425518 -51 5 C-53.33299825 5.03954234 -55.66708189 5.04401732 -58 5 C-43.45314443 -4.69790371 -16.4265702 -2.94958852 0 0 Z " fill="#B33635" transform="translate(146,2)"/>
<path d="M0 0 C0 0.99 0 1.98 0 3 C-1.12094922 4.11100532 -2.28452348 5.17935978 -3.46875 6.22265625 C-8.77842695 12.06892101 -7.79617678 19.04614713 -7.5 26.4375 C-7.4734165 27.83783444 -7.44995294 29.23823175 -7.4296875 30.63867188 C-7.86804835 36.7101183 -7.86804835 36.7101183 -6 42 C-5.69032054 46.26332504 -5.72154024 50.53931502 -5.6875 54.8125 C-5.65849609 56.01455078 -5.62949219 57.21660156 -5.59960938 58.45507812 C-5.59123047 59.61072266 -5.58285156 60.76636719 -5.57421875 61.95703125 C-5.55963623 63.01897705 -5.54505371 64.08092285 -5.5300293 65.17504883 C-6.10735599 68.64530711 -7.32806074 69.80341007 -10 72 C-9.83439575 71.45812546 -9.6687915 70.91625092 -9.49816895 70.35795593 C-8.91121687 67.57976762 -8.94690818 65.11219067 -9.02929688 62.27270508 C-9.05842163 61.12083206 -9.08754639 59.96895905 -9.11755371 58.78218079 C-9.15094849 57.54050644 -9.18434326 56.29883209 -9.21875 55.01953125 C-9.26550573 52.38477352 -9.31013841 49.75007213 -9.3515625 47.11523438 C-9.41742436 42.96473001 -9.49496943 38.81582226 -9.62402344 34.66674805 C-9.70739944 31.95951944 -9.76631345 29.25390733 -9.79797363 26.545578 C-9.8278377 24.00057212 -9.89161954 21.45567226 -9.99401855 18.91255188 C-10.01108762 13.81195989 -9.99161909 10.36952486 -6.9387207 6.15316772 C-4.72321571 3.92477242 -2.49054545 1.9125343 0 0 Z " fill="#2C3D68" transform="translate(57,134)"/>
<path d="M0 0 C0 4.93392702 -3.68436618 7.58963379 -7 11 C-9.57902029 13.4460811 -12.2601923 15.73646712 -15 18 C-15.84304687 18.70769531 -16.68609375 19.41539062 -17.5546875 20.14453125 C-21.59796378 23.47393531 -25.00992019 26.25391523 -30 28 C-28.37660195 26.29115995 -26.70680947 24.62553283 -25 23 C-24.34 23 -23.68 23 -23 23 C-22.896875 22.360625 -22.79375 21.72125 -22.6875 21.0625 C-22.460625 20.381875 -22.23375 19.70125 -22 19 C-21.01 18.67 -20.02 18.34 -19 18 C-18.67 17.34 -18.34 16.68 -18 16 C-17.01 16 -16.02 16 -15 16 C-15.33 15.01 -15.66 14.02 -16 13 C-15.01 13 -14.02 13 -13 13 C-13 12.34 -13 11.68 -13 11 C-12.0409375 10.566875 -12.0409375 10.566875 -11.0625 10.125 C-8.84793921 9.17176549 -8.84793921 9.17176549 -8 7 C-7.01 7 -6.02 7 -5 7 C-5.99 6.34 -6.98 5.68 -8 5 C-6.625 3 -6.625 3 -5 1 C-4.34 1 -3.68 1 -3 1 C-2.01 0.67 -1.02 0.34 0 0 Z " fill="#B63636" transform="translate(218,200)"/>
<path d="M0 0 C3.21540355 4.82310532 2.32793909 10.08076791 2.3125 15.75 C2.32861328 16.91789062 2.34472656 18.08578125 2.36132812 19.2890625 C2.36495774 25.69169899 2.00652605 30.33055088 -1 36 C-1.12375 36.86625 -1.2475 37.7325 -1.375 38.625 C-2.29086405 42.10528338 -4.31464432 43.69826656 -7 46 C-8.485 46.495 -8.485 46.495 -10 47 C-9.731875 46.46890625 -9.46375 45.9378125 -9.1875 45.390625 C-7.76315646 42.52319655 -6.37121893 39.64327195 -5 36.75 C-4.484375 35.67234375 -3.96875 34.5946875 -3.4375 33.484375 C-0.19774833 25.63149867 0.26836728 18.90352828 0.125 10.5 C0.11597656 9.48679687 0.10695312 8.47359375 0.09765625 7.4296875 C0.07429007 4.95287199 0.04153168 2.47656621 0 0 Z " fill="#AD393A" transform="translate(166,85)"/>
<path d="M0 0 C0 3.69987971 -0.89503981 4.98515379 -3 8 C-4.63599312 9.59622019 -6.32707252 11.13749073 -8.0625 12.625 C-13.23644953 16.91864726 -13.23644953 16.91864726 -15.5 23.0625 C-14.88215173 27.92805511 -12.95118765 30.76969423 -10.21484375 34.765625 C-9.81394531 35.50296875 -9.41304687 36.2403125 -9 37 C-9.33 37.99 -9.66 38.98 -10 40 C-11.70802567 37.42970046 -13.38758335 34.84197275 -15.0625 32.25 C-15.54783203 31.52039063 -16.03316406 30.79078125 -16.53320312 30.0390625 C-16.98759766 29.33007812 -17.44199219 28.62109375 -17.91015625 27.890625 C-18.33433838 27.24125977 -18.75852051 26.59189453 -19.19555664 25.92285156 C-20 24 -20 24 -19.80126953 21.94360352 C-18.90556765 19.77093968 -17.96295259 18.63055442 -16.26953125 17.01171875 C-15.71612061 16.47313232 -15.16270996 15.9345459 -14.5925293 15.37963867 C-14.00511963 14.82123291 -13.41770996 14.26282715 -12.8125 13.6875 C-11.62576347 12.53313931 -10.44084443 11.376907 -9.2578125 10.21875 C-8.69223633 9.66574219 -8.12666016 9.11273438 -7.54394531 8.54296875 C-4.8406342 5.84136751 -2.41070656 2.96172521 0 0 Z " fill="#2B3D6A" transform="translate(101,90)"/>
<path d="M0 0 C3.6439414 1.21464713 3.98967974 2.14603573 5.91796875 5.3671875 C6.44970703 6.25277344 6.98144531 7.13835937 7.52929688 8.05078125 C8.35010742 9.44876953 8.35010742 9.44876953 9.1875 10.875 C9.74630859 11.79925781 10.30511719 12.72351563 10.88085938 13.67578125 C15 20.60639881 15 20.60639881 15 24 C13.42274653 24.70133599 11.83788667 25.385583 10.25 26.0625 C9.36828125 26.44535156 8.4865625 26.82820313 7.578125 27.22265625 C5 28 5 28 1 27 C6.445 25.02 6.445 25.02 12 23 C12 22.01 12 21.02 12 20 C11.34 19.67 10.68 19.34 10 19 C9.7834375 18.0409375 9.7834375 18.0409375 9.5625 17.0625 C9.13834965 14.61789145 9.13834965 14.61789145 6 13 C4.83203125 11.125 4.83203125 11.125 3.8125 9 C3.46832031 8.29875 3.12414062 7.5975 2.76953125 6.875 C2 5 2 5 2 3 C1.01 2.67 0.02 2.34 -1 2 C-0.67 1.34 -0.34 0.68 0 0 Z " fill="#2C3C68" transform="translate(157,213)"/>
<path d="M0 0 C0.99 0.33 1.98 0.66 3 1 C3 1.66 3 2.32 3 3 C4.1446875 3.4021875 4.1446875 3.4021875 5.3125 3.8125 C9.5679558 5.69281768 9.5679558 5.69281768 11 8 C10.6875 11.6875 10.6875 11.6875 10 15 C11.98 14.67 13.96 14.34 16 14 C13.94766315 16.2477975 12.99332739 17.0022242 10 18 C8.32605999 15.37957157 6.6621165 12.75294095 5 10.125 C4.52304688 9.37863281 4.04609375 8.63226563 3.5546875 7.86328125 C3.10351562 7.14785156 2.65234375 6.43242187 2.1875 5.6953125 C1.76855469 5.03547363 1.34960938 4.37563477 0.91796875 3.69580078 C0 2 0 2 0 0 Z " fill="#AE3B39" transform="translate(172,214)"/>
<path d="M0 0 C0.33 0 0.66 0 1 0 C1.33 10.89 1.66 21.78 2 33 C2.66 33.33 3.32 33.66 4 34 C3.34 36.64 2.68 39.28 2 42 C1.67 42 1.34 42 1 42 C-0.90604042 27.78978796 -1.44441167 14.31515135 0 0 Z " fill="#2B3D6A" transform="translate(2,106)"/>
<path d="M0 0 C2.99876322 2.80319171 5.16322727 5.59434917 7.25 9.125 C8.03117188 10.42824219 8.03117188 10.42824219 8.828125 11.7578125 C10 14 10 14 10 16 C9.01 16.33 8.02 16.66 7 17 C4.25 15.5 4.25 15.5 2 13 C2.1875 9.25 2.1875 9.25 3 6 C2.01 5.67 1.02 5.34 0 5 C0 3.35 0 1.7 0 0 Z " fill="#2A3D70" transform="translate(120,152)"/>
<path d="M0 0 C2.64 0 5.28 0 8 0 C10 6 10 6 10.875 8.8125 C12.10556175 12.29909163 13.65006998 15.54254378 15.29296875 18.8515625 C16.11148146 21.33875583 15.86406958 22.56739648 15 25 C14.79246094 24.32195312 14.58492187 23.64390625 14.37109375 22.9453125 C11.36354077 13.85973405 6.90380906 6.64643021 0 0 Z " fill="#B63436" transform="translate(150,60)"/>
<path d="M0 0 C12.54114318 0.45604157 25.15031874 5.97536127 36 12 C33 13 33 13 30.21484375 11.85546875 C29.13332031 11.30503906 28.05179688 10.75460937 26.9375 10.1875 C21.3188451 7.47265666 16.17435297 5.8083803 10 5 C10 4.34 10 3.68 10 3 C9.36191406 2.95101563 8.72382813 2.90203125 8.06640625 2.8515625 C7.24011719 2.77679688 6.41382813 2.70203125 5.5625 2.625 C4.73878906 2.55539062 3.91507813 2.48578125 3.06640625 2.4140625 C2.38449219 2.27742187 1.70257813 2.14078125 1 2 C0.67 1.34 0.34 0.68 0 0 Z " fill="#AD3A36" transform="translate(146,3)"/>
<path d="M0 0 C3.60686535 1.56017897 6.21200604 3.75765318 9.125 6.375 C9.99382812 7.14585938 10.86265625 7.91671875 11.7578125 8.7109375 C13.78336688 10.77883797 14.92192633 12.34721199 16 15 C15.13375 14.360625 14.2675 13.72125 13.375 13.0625 C10.0401188 11.02451704 7.83952522 10.36566907 4 10 C4.0825 9.236875 4.165 8.47375 4.25 7.6875 C4.30342071 4.85583656 4.30342071 4.85583656 2 3.3125 C1.34 2.879375 0.68 2.44625 0 2 C0 1.34 0 0.68 0 0 Z " fill="#C63034" transform="translate(199,28)"/>
<path d="M0 0 C-0.33 0.99 -0.66 1.98 -1 3 C-2.65 3 -4.3 3 -6 3 C-6 3.66 -6 4.32 -6 5 C-6.9793879 6.02019573 -7.97895449 7.02149805 -9 8 C-9 8.33 -9 8.66 -9 9 C-9.88751953 9.14695312 -9.88751953 9.14695312 -10.79296875 9.296875 C-15.87042139 10.25769801 -19.17513744 11.2985201 -23 15 C-23.66 14.67 -24.32 14.34 -25 14 C-7.56410256 0 -7.56410256 0 0 0 Z " fill="#B33533" transform="translate(75,12)"/>
<path d="M0 0 C3.94890988 3.53274841 6.54081449 7.66637496 9.3125 12.125 C9.77978516 12.85332031 10.24707031 13.58164063 10.72851562 14.33203125 C11.16486328 15.02941406 11.60121094 15.72679687 12.05078125 16.4453125 C12.64886597 17.39688232 12.64886597 17.39688232 13.2590332 18.36767578 C13.50355225 18.90634277 13.74807129 19.44500977 14 20 C13.67 20.66 13.34 21.32 13 22 C12.67 21.01 12.34 20.02 12 19 C10.35 19.33 8.7 19.66 7 20 C7 19.01 7 18.02 7 17 C6.65500202 13.72251923 6.17425481 12.21360267 4.0625 9.625 C1.53672036 6.41037137 0.92857894 3.9464605 0 0 Z " fill="#FEE7E7" transform="translate(143,170)"/>
<path d="M0 0 C1.37562854 1.28965176 2.70766393 2.62689293 4 4 C4 4.66 4 5.32 4 6 C1.10765685 6.82638376 -0.88742431 7 -4 7 C-6.0624994 8.81222534 -6.0624994 8.81222534 -8 11 C-9.31558703 12.02323436 -10.64377755 13.03126968 -12 14 C-12.66 13.67 -13.32 13.34 -14 13 C-13.07316406 12.14535156 -12.14632812 11.29070312 -11.19140625 10.41015625 C-9.98176077 9.29428174 -8.7721259 8.17839573 -7.5625 7.0625 C-6.64500977 6.21655273 -6.64500977 6.21655273 -5.70898438 5.35351562 C-5.12568359 4.81533203 -4.54238281 4.27714844 -3.94140625 3.72265625 C-3.40201416 3.22515869 -2.86262207 2.72766113 -2.30688477 2.21508789 C-1.52614632 1.48918929 -0.75381738 0.75381738 0 0 Z " fill="#2C3C6D" transform="translate(72,120)"/>
<path d="M0 0 C1 2 1 2 0.51171875 3.875 C0.10373047 4.926875 0.10373047 4.926875 -0.3125 6 C-0.70888672 7.051875 -0.70888672 7.051875 -1.11328125 8.125 C-2 10 -2 10 -4 12 C-6.625 12.125 -6.625 12.125 -9 12 C-7.55575365 8.76138697 -5.74227753 6.38030837 -3.375 3.75 C-2.74335937 3.04359375 -2.11171875 2.3371875 -1.4609375 1.609375 C-0.97882812 1.07828125 -0.49671875 0.5471875 0 0 Z " fill="#D32B2E" transform="translate(37,37)"/>
<path d="M0 0 C0.33 0.99 0.66 1.98 1 3 C0.2884375 3.928125 0.2884375 3.928125 -0.4375 4.875 C-2.26909043 6.89705267 -2.26909043 6.89705267 -1.875 9.5 C-2 12 -2 12 -4.3125 14.25 C-7 16 -7 16 -10 17 C-9.72027344 16.44441406 -9.44054687 15.88882813 -9.15234375 15.31640625 C-8.36125412 13.726182 -7.58326436 12.12939387 -6.81640625 10.52734375 C-6.19572266 9.24537109 -6.19572266 9.24537109 -5.5625 7.9375 C-5.15128906 7.08027344 -4.74007812 6.22304687 -4.31640625 5.33984375 C-3.07873685 3.13995066 -1.87430642 1.66665731 0 0 Z " fill="#BF3132" transform="translate(166,115)"/>
<path d="M0 0 C0.7425 0.804375 1.485 1.60875 2.25 2.4375 C4.75304829 4.76988591 5.7180955 5.63534394 9 6 C9 7.65 9 9.3 9 11 C9.66 11.33 10.32 11.66 11 12 C11.40729228 14.32156597 11.74438677 16.6568787 12 19 C8.75561206 16.15459828 6.61133276 12.54157114 4.3125 8.9375 C3.68891602 7.98133789 3.68891602 7.98133789 3.05273438 7.00585938 C0 2.24880696 0 2.24880696 0 0 Z " fill="#B83533" transform="translate(133,152)"/>
<path d="M0 0 C0.66 0 1.32 0 2 0 C2.433125 1.03125 2.86625 2.0625 3.3125 3.125 C6.03290496 9.43887012 9.29028186 15.22281049 13 21 C12.34 21.66 11.68 22.32 11 23 C0 4.73876404 0 4.73876404 0 0 Z " fill="#2A3C67" transform="translate(10,169)"/>
<path d="M0 0 C0.66 0.33 1.32 0.66 2 1 C1.01 2.485 1.01 2.485 0 4 C-0.99 4 -1.98 4 -3 4 C-3.33 6.31 -3.66 8.62 -4 11 C-4.66 11 -5.32 11 -6 11 C-6 10.01 -6 9.02 -6 8 C-7.65 8 -9.3 8 -11 8 C-11.33 8.66 -11.66 9.32 -12 10 C-12.33 9.01 -12.66 8.02 -13 7 C-12.14535156 6.57847656 -11.29070312 6.15695313 -10.41015625 5.72265625 C-9.30542969 5.17480469 -8.20070312 4.62695312 -7.0625 4.0625 C-5.96035156 3.51722656 -4.85820312 2.97195312 -3.72265625 2.41015625 C-1.15205586 1.25295022 -1.15205586 1.25295022 0 0 Z " fill="#B83536" transform="translate(144,142)"/>
<path d="M0 0 C6.11090483 -0.09945415 11.97403427 -0.0712828 18 1 C18 1.33 18 1.66 18 2 C16.98679688 2.19916016 16.98679688 2.19916016 15.953125 2.40234375 C14.61507812 2.66724609 14.61507812 2.66724609 13.25 2.9375 C12.36828125 3.11152344 11.4865625 3.28554687 10.578125 3.46484375 C8.36764947 3.92368488 6.18487932 4.43336074 4 5 C4 4.34 4 3.68 4 3 C3.34 3 2.68 3 2 3 C2 2.34 2 1.68 2 1 C1.34 0.67 0.68 0.34 0 0 Z " fill="#BF3230" transform="translate(128,1)"/>
<path d="M0 0 C2.1875 0.3125 2.1875 0.3125 4 1 C2.27728773 2.15551453 0.54653083 3.29904119 -1.1875 4.4375 C-2.15042969 5.07558594 -3.11335937 5.71367187 -4.10546875 6.37109375 C-6.84977757 7.91546187 -8.90418343 8.59816641 -12 9 C-11.34 10.65 -10.68 12.3 -10 14 C-10.99 13.67 -11.98 13.34 -13 13 C-13 11.35 -13 9.7 -13 8 C-12.31292969 7.67386719 -11.62585938 7.34773437 -10.91796875 7.01171875 C-10.01691406 6.57472656 -9.11585938 6.13773438 -8.1875 5.6875 C-7.29417969 5.25824219 -6.40085938 4.82898438 -5.48046875 4.38671875 C-2.97839229 3.16009068 -2.97839229 3.16009068 -1.42578125 1.26953125 C-0.95527344 0.85058594 -0.48476562 0.43164062 0 0 Z " fill="#FEECE8" transform="translate(143,140)"/>
<path d="M0 0 C1.69141656 0.08963062 3.37959602 0.24577676 5.0625 0.4375 C6.44115234 0.59025391 6.44115234 0.59025391 7.84765625 0.74609375 C8.55792969 0.82988281 9.26820312 0.91367188 10 1 C7.66785852 2.20628008 5.50357861 3.1654738 3 4 C4.98 6.97 4.98 6.97 7 10 C6.67 10.66 6.34 11.32 6 12 C2.18699218 8.7129243 0.77027754 5.60272162 -1 1 C-0.67 0.67 -0.34 0.34 0 0 Z " fill="#2B3C6E" transform="translate(113,140)"/>
<path d="M0 0 C0.66 0 1.32 0 2 0 C0.89061647 6.30596952 -0.93197901 11.37529486 -4 17 C-4.66 16.01 -5.32 15.02 -6 14 C-5.01 13.67 -4.02 13.34 -3 13 C-3 9.7 -3 6.4 -3 3 C-2.34 3 -1.68 3 -1 3 C-0.67 2.01 -0.34 1.02 0 0 Z " fill="#BE3336" transform="translate(239,160)"/>
<path d="M0 0 C0.99 0 1.98 0 3 0 C3.33 1.98 3.66 3.96 4 6 C4.99 6.33 5.98 6.66 7 7 C6.67 7.66 6.34 8.32 6 9 C6.99 9.33 7.98 9.66 9 10 C10.25 12.375 10.25 12.375 11 15 C10.67 15.99 10.34 16.98 10 18 C8.32605999 15.37957157 6.6621165 12.75294095 5 10.125 C4.52304688 9.37863281 4.04609375 8.63226563 3.5546875 7.86328125 C3.10351562 7.14785156 2.65234375 6.43242187 2.1875 5.6953125 C1.76855469 5.03547363 1.34960938 4.37563477 0.91796875 3.69580078 C0 2 0 2 0 0 Z " fill="#2A3E66" transform="translate(93,132)"/>
<path d="M0 0 C3.915141 3.35583515 6.0795774 7.28066362 8 12 C8 12.66 8 13.32 8 14 C7.34 14 6.68 14 6 14 C5.67 12.68 5.34 11.36 5 10 C4.34 10 3.68 10 3 10 C3 9.01 3 8.02 3 7 C1.68 6.34 0.36 5.68 -1 5 C-0.67 3.35 -0.34 1.7 0 0 Z " fill="#B93435" transform="translate(227,58)"/>
<path d="M0 0 C3.37244652 3.99697365 6.71374722 8.27090179 9 13 C8.67 13.66 8.34 14.32 8 15 C6.5 13.6875 6.5 13.6875 5 12 C5 11.01 5 10.02 5 9 C3.68 9 2.36 9 1 9 C0.67 9.66 0.34 10.32 0 11 C-0.33 10.34 -0.66 9.68 -1 9 C-0.67 8.34 -0.34 7.68 0 7 C0.66 7 1.32 7 2 7 C1.67 6.401875 1.34 5.80375 1 5.1875 C0 3 0 3 0 0 Z " fill="#283D6C" transform="translate(97,161)"/>
<path d="M0 0 C3.37244652 3.99697365 6.71374722 8.27090179 9 13 C8.67 13.66 8.34 14.32 8 15 C4.79671105 12.86447403 3.87891527 11.26767874 2 8 C1.34 7.34 0.68 6.68 0 6 C-0.125 2.875 -0.125 2.875 0 0 Z " fill="#2B3D68" transform="translate(76,126)"/>
<path d="M0 0 C0.66 0 1.32 0 2 0 C3.5078125 2.1171875 3.5078125 2.1171875 5.125 4.875 C5.66382813 5.77992188 6.20265625 6.68484375 6.7578125 7.6171875 C8 10 8 10 8 12 C8.99 12.33 9.98 12.66 11 13 C10.67 14.32 10.34 15.64 10 17 C8.32771465 14.545324 6.6620314 12.08660326 5 9.625 C4.52304688 8.92632812 4.04609375 8.22765625 3.5546875 7.5078125 C2.87792969 6.50234375 2.87792969 6.50234375 2.1875 5.4765625 C1.76855469 4.85861816 1.34960938 4.24067383 0.91796875 3.60400391 C0 2 0 2 0 0 Z " fill="#AD3939" transform="translate(145,171)"/>
<path d="M0 0 C2.48291009 3.01802003 3.91340355 5.89683437 5.25 9.5625 C5.60578125 10.51253906 5.9615625 11.46257812 6.328125 12.44140625 C7 15 7 15 6 18 C5.71125 17.195625 5.4225 16.39125 5.125 15.5625 C4.26737432 12.8673532 4.26737432 12.8673532 2 12 C0.58355646 7.90805199 -0.26260116 4.33291912 0 0 Z " fill="#AF393A" transform="translate(235,72)"/>
<path d="M0 0 C0.66 0.33 1.32 0.66 2 1 C1.01 2.1446875 1.01 2.1446875 0 3.3125 C-2.29850538 5.84277939 -2.29850538 5.84277939 -2 9 C-4.66666667 9 -7.33333333 9 -10 9 C-6.7 6.03 -3.4 3.06 0 0 Z " fill="#B93432" transform="translate(48,27)"/>
<path d="M0 0 C0.99 0.33 1.98 0.66 3 1 C3 1.66 3 2.32 3 3 C4.1446875 3.4021875 4.1446875 3.4021875 5.3125 3.8125 C7.87380884 4.94424112 9.19692938 5.91223401 11 8 C10.01 8.99 9.02 9.98 8 11 C7.67 9.35 7.34 7.7 7 6 C6.21625 5.938125 5.4325 5.87625 4.625 5.8125 C3.75875 5.544375 2.8925 5.27625 2 5 C0.6875 2.4375 0.6875 2.4375 0 0 Z " fill="#C12F31" transform="translate(172,214)"/>
<path d="M0 0 C2.63978826 3.18595135 5.10498388 6.30970546 7 10 C6.67 10.66 6.34 11.32 6 12 C1.30021142 9.10782241 1.30021142 9.10782241 0.4453125 5.953125 C0.21402785 3.97669255 0.09937182 1.98743631 0 0 Z " fill="#2A3C6A" transform="translate(123,204)"/>
<path d="M0 0 C2.31 0.66 4.62 1.32 7 2 C7.103125 2.639375 7.20625 3.27875 7.3125 3.9375 C7.539375 4.618125 7.76625 5.29875 8 6 C8.99 6.33 9.98 6.66 11 7 C10.67 7.66 10.34 8.32 10 9 C8.51726301 7.87970983 7.03891114 6.75361382 5.5625 5.625 C4.32693359 4.68527344 4.32693359 4.68527344 3.06640625 3.7265625 C1 2 1 2 0 0 Z " fill="#2C3C69" transform="translate(47,218)"/>
<path d="M0 0 C0.33 0.99 0.66 1.98 1 3 C-2.12621626 6.39417765 -4.56541027 8.6062718 -9 10 C-8.06409496 8.8944811 -7.12620142 7.79064547 -6.1875 6.6875 C-5.66542969 6.07261719 -5.14335937 5.45773438 -4.60546875 4.82421875 C-3.12827531 3.14575321 -1.59960869 1.56117966 0 0 Z " fill="#B93435" transform="translate(155,132)"/>
<path d="M0 0 C1.32 0 2.64 0 4 0 C5.76462683 3.08809695 6 4.23312136 6 8 C6.66 8 7.32 8 8 8 C7.67 8.99 7.34 9.98 7 11 C4.59424393 8.81482901 3.20464419 6.74080329 1.8125 3.8125 C1.46832031 3.09707031 1.12414062 2.38164062 0.76953125 1.64453125 C0.51558594 1.10183594 0.26164063 0.55914062 0 0 Z " fill="#CE2C2B" transform="translate(147,172)"/>
<path d="M0 0 C2.4375 0.6875 2.4375 0.6875 5 2 C5.6875 4.5 5.6875 4.5 6 7 C6.66 7.66 7.32 8.32 8 9 C7.67 9.99 7.34 10.98 7 12 C5.83061933 10.18924982 4.66456267 8.37635257 3.5 6.5625 C2.8503125 5.55316406 2.200625 4.54382813 1.53125 3.50390625 C0 1 0 1 0 0 Z " fill="#2D3C6D" transform="translate(144,217)"/>
<path d="M0 0 C0 3.58912412 -0.66436554 4.10857029 -3 6.6875 C-3.556875 7.31011719 -4.11375 7.93273437 -4.6875 8.57421875 C-5.120625 9.04472656 -5.55375 9.51523438 -6 10 C-6.33 8.68 -6.66 7.36 -7 6 C-6.34 5.67 -5.68 5.34 -5 5 C-5 4.34 -5 3.68 -5 3 C-2.5 1.375 -2.5 1.375 0 0 Z " fill="#B33638" transform="translate(226,190)"/>
<path d="M0 0 C0.99 0 1.98 0 3 0 C1.5140084 4.59306496 -0.85014682 7.43569245 -4 11 C-4 7.80389448 -3.45328458 6.58282374 -2 3.8125 C-1.62875 3.09707031 -1.2575 2.38164063 -0.875 1.64453125 C-0.441875 0.83048828 -0.441875 0.83048828 0 0 Z " fill="#FEEBED" transform="translate(157,124)"/>
<path d="M0 0 C1.32 0.33 2.64 0.66 4 1 C1.03 3.64 -1.94 6.28 -5 9 C-5.33 8.01 -5.66 7.02 -6 6 C-5.38125 5.7525 -4.7625 5.505 -4.125 5.25 C-1.64931313 3.79371361 -1.04874998 2.62187494 0 0 Z " fill="#2B3C6C" transform="translate(97,75)"/>
<path d="M0 0 C0 0.99 0 1.98 0 3 C-2.5654594 5.5654594 -4.47686668 5.54046087 -8 6 C-7.34 4.35 -6.68 2.7 -6 1 C-5.01 1 -4.02 1 -3 1 C-2.01 0.67 -1.02 0.34 0 0 Z " fill="#C53133" transform="translate(218,200)"/>
<path d="M0 0 C0.99 0 1.98 0 3 0 C4.75 2.375 4.75 2.375 6 5 C5.67 5.66 5.34 6.32 5 7 C4.67 6.01 4.34 5.02 4 4 C2.35 4.33 0.7 4.66 -1 5 C-1 2 -1 2 0 0 Z " fill="#FDF3EE" transform="translate(151,185)"/>
<path d="M0 0 C0.33 0.66 0.66 1.32 1 2 C0.67 2.99 0.34 3.98 0 5 C-0.9590625 5.2165625 -0.9590625 5.2165625 -1.9375 5.4375 C-4.20311706 5.80104993 -4.20311706 5.80104993 -5.25 8.0625 C-5.4975 8.701875 -5.745 9.34125 -6 10 C-6.99 10 -7.98 10 -9 10 C-6.03 6.7 -3.06 3.4 0 0 Z " fill="#AD3230" transform="translate(37,37)"/>
<path d="M0 0 C0.33 0.66 0.66 1.32 1 2 C-0.21484375 4.6015625 -0.21484375 4.6015625 -1.9375 7.625 C-2.78634766 9.12933594 -2.78634766 9.12933594 -3.65234375 10.6640625 C-4.09707031 11.43492187 -4.54179687 12.20578125 -5 13 C-5.33 13 -5.66 13 -6 13 C-6 11.35 -6 9.7 -6 8 C-5.34 8 -4.68 8 -4 8 C-3.8453125 7.13375 -3.8453125 7.13375 -3.6875 6.25 C-2.90207202 3.67950842 -1.69495803 2.06342716 0 0 Z " fill="#B13836" transform="translate(233,177)"/>
<path d="M0 0 C3.94139078 1.66751148 6.7892812 4.22710649 10 7 C9.01 7.495 9.01 7.495 8 8 C4.27382578 6.75794193 2.60708543 4.8889325 0 2 C0 1.34 0 0.68 0 0 Z " fill="#B23638" transform="translate(199,28)"/>
<path d="M0 0 C0 0.66 0 1.32 0 2 C-3.03525486 4.02350324 -4.19426202 4.32124018 -7.6875 4.625 C-8.49574219 4.69976563 -9.30398437 4.77453125 -10.13671875 4.8515625 C-11.05904297 4.92503906 -11.05904297 4.92503906 -12 5 C-8.51164396 2.04831412 -4.66588377 0 0 0 Z " fill="#B53633" transform="translate(87,7)"/>
<path d="M0 0 C2.7972908 2.06756277 3.02692273 3.14440371 3.6875 6.6875 C3.790625 7.780625 3.89375 8.87375 4 10 C2.68 9.34 1.36 8.68 0 8 C0 5.36 0 2.72 0 0 Z " fill="#FDF0F2" transform="translate(140,165)"/>
<path d="M0 0 C-1.45264038 0.8638129 -2.9123163 1.71580454 -4.375 2.5625 C-5.59316406 3.27599609 -5.59316406 3.27599609 -6.8359375 4.00390625 C-7.55007812 4.33261719 -8.26421875 4.66132813 -9 5 C-9.66 4.67 -10.32 4.34 -11 4 C-4.45384615 -1.48461538 -4.45384615 -1.48461538 0 0 Z " fill="#2B3D68" transform="translate(139,134)"/>
<path d="M0 0 C1.98 0.99 1.98 0.99 4 2 C4.875 4.9375 4.875 4.9375 5 8 C4.01 9.485 4.01 9.485 3 11 C2.01 7.37 1.02 3.74 0 0 Z " fill="#D02A2E" transform="translate(163,74)"/>
<path d="M0 0 C2.72426311 2.35277269 3.8141763 4.62496331 5 8 C2.525 7.01 2.525 7.01 0 6 C0 4.02 0 2.04 0 0 Z " fill="#2D3C74" transform="translate(130,168)"/>
<path d="M0 0 C2.25245881 2.68841859 3.88213958 4.64641875 5 8 C4.01 8.33 3.02 8.66 2 9 C0.50178941 5.62902617 0 3.79557881 0 0 Z " fill="#2C3C6E" transform="translate(114,189)"/>
<path d="M0 0 C2.86477034 1.05041579 3.83913226 1.70124563 5.3125 4.4375 C6 7 6 7 5 10 C4.16121545 8.71186658 3.32913217 7.41936744 2.5 6.125 C2.0359375 5.40570313 1.571875 4.68640625 1.09375 3.9453125 C0 2 0 2 0 0 Z " fill="#2E3D68" transform="translate(116,170)"/>
<path d="M0 0 C2.86477034 1.05041579 3.83913226 1.70124563 5.3125 4.4375 C6 7 6 7 5 10 C4.16121545 8.71186658 3.32913217 7.41936744 2.5 6.125 C2.0359375 5.40570313 1.571875 4.68640625 1.09375 3.9453125 C0 2 0 2 0 0 Z " fill="#2B3B6A" transform="translate(110,160)"/>
<path d="M0 0 C0 3 0 3 -2 5.1875 C-2.66 5.785625 -3.32 6.38375 -4 7 C-4.33 5.35 -4.66 3.7 -5 2 C-3.35 1.34 -1.7 0.68 0 0 Z " fill="#2B3D6E" transform="translate(149,120)"/>
<path d="M0 0 C1 3 1 3 0.22265625 5.04296875 C-0.16019531 5.75066406 -0.54304687 6.45835937 -0.9375 7.1875 C-1.31777344 7.90292969 -1.69804687 8.61835938 -2.08984375 9.35546875 C-2.54037109 10.16951172 -2.54037109 10.16951172 -3 11 C-3.66 10.01 -4.32 9.02 -5 8 C-4.01 7.67 -3.02 7.34 -2 7 C-1.855625 6.21625 -1.71125 5.4325 -1.5625 4.625 C-1 2 -1 2 0 0 Z " fill="#A93D3A" transform="translate(238,166)"/>
<path d="M0 0 C2.04119788 1.61594832 4.04072937 3.2856382 6 5 C6 5.66 6 6.32 6 7 C4.125 6.875 4.125 6.875 2 6 C0.75 2.9375 0.75 2.9375 0 0 Z " fill="#B5343A" transform="translate(215,43)"/>
</svg>
